<?xml version="1.0" encoding="utf-8"?>
<!-- Generator: Adobe Illustrator 23.0.1, SVG Export Plug-In . SVG Version: 6.00 Build 0)  -->
<svg version="1.1" id="Ebene_1" xmlns="http://www.w3.org/2000/svg" xmlns:xlink="http://www.w3.org/1999/xlink" x="0px" y="0px"
	 viewBox="0 0 30 30" style="enable-background:new 0 0 30 30;" xml:space="preserve">
<style type="text/css">
	.st0{fill:none;stroke:#000000;stroke-miterlimit:10;}
</style>
<g>
	<g>
		<path d="M28,5.5c0.55,0,1,0.45,1,1v17c0,0.55-0.45,1-1,1H2c-0.55,0-1-0.45-1-1v-17c0-0.55,0.45-1,1-1H28 M28,4.5H2
			c-1.1,0-2,0.9-2,2v17c0,1.1,0.9,2,2,2h26c1.1,0,2-0.9,2-2v-17C30,5.4,29.1,4.5,28,4.5L28,4.5z"/>
	</g>
	<polyline class="st0" points="29.5,6.03 15,16.56 0.5,6.03 	"/>
</g>
</svg>
