<?xml version="1.0" encoding="utf-8"?>
<!-- Generator: Adobe Illustrator 21.1.0, SVG Export Plug-In . SVG Version: 6.00 Build 0)  -->
<svg version="1.1" id="Ebene_1" xmlns="http://www.w3.org/2000/svg" xmlns:xlink="http://www.w3.org/1999/xlink" x="0px" y="0px"
	 viewBox="0 0 30 30" style="enable-background:new 0 0 30 30;" xml:space="preserve">
<style type="text/css">
	.st0{fill:#FFFFFF;}
	.st1{fill:none;stroke:#FFFFFF;}
</style>
<g id="Symbols">
	<g id="Footer" transform="translate(-727.000000, -132.000000)">
		<g id="Group" transform="translate(727.000000, 132.000000)">
			<path id="Shape" class="st0" d="M16.8,12.8c0-0.5,0-1,0-1.5c0-0.2-0.1-0.3-0.3-0.3c-1.2,0-2.5,0-3.7,0c-0.2,0-0.3,0.1-0.3,0.3
				c0,4.5,0,9.1,0,13.6c0,0.2,0.1,0.3,0.3,0.3c1.3,0,2.6,0,3.9,0c0.2,0,0.3-0.1,0.3-0.3c0-2.1,0-4.3,0-6.4c0-0.5,0-1.1,0.1-1.6
				c0.1-0.6,0.3-1.1,0.7-1.6c0.5-0.6,1.2-0.7,1.9-0.7c1,0,1.6,0.5,1.9,1.5c0.2,0.6,0.2,1.3,0.2,1.9c0,2.3,0,4.6,0,6.9
				c0,0.3,0,0.3,0.3,0.3c1.3,0,2.5,0,3.8,0c0.4,0,0.4,0,0.4-0.4c0-2.8,0-5.5,0-8.3c0-0.8-0.1-1.7-0.4-2.5c-0.4-1.3-1-2.3-2.3-2.8
				c-1.3-0.6-2.6-0.7-4-0.3C18.4,11.1,17.4,11.8,16.8,12.8z M9.8,18.1c0-2.3,0-4.5,0-6.8c0-0.2-0.1-0.3-0.3-0.3c-1.3,0-2.6,0-3.8,0
				c-0.2,0-0.3,0.1-0.3,0.3c0,4.5,0,9,0,13.5c0,0.2,0.1,0.3,0.3,0.3c1.3,0,2.6,0,3.8,0c0.2,0,0.3-0.1,0.3-0.3
				C9.8,22.6,9.8,20.4,9.8,18.1z M5,6.6C5,8,6.2,9.2,7.6,9.2c1.5,0,2.6-1.1,2.6-2.6S9,4,7.6,4C6,4,5,5.3,5,6.6z"/>
			<rect id="Rectangle-3" x="0.5" y="0.5" class="st1" width="29" height="29"/>
		</g>
	</g>
</g>
</svg>
