
<svg width="30px" height="30px" viewBox="0 0 30 30" version="1.1" xmlns="http://www.w3.org/2000/svg" xmlns:xlink="http://www.w3.org/1999/xlink">
    <g id="Symbols" stroke="none" stroke-width="1" fill="none" fill-rule="evenodd">
        <g id="Footer" transform="translate(-727.000000, -132.000000)">
            <g id="Group" transform="translate(727.000000, 132.000000)">
                <path d="M16.8,12.8 C16.8,12.3 16.8,11.8 16.8,11.3 C16.8,11.1 16.7,11 16.5,11 C15.3,11 14,11 12.8,11 C12.6,11 12.5,11.1 12.5,11.3 C12.5,15.8 12.5,20.4 12.5,24.9 C12.5,25.1 12.6,25.2 12.8,25.2 C14.1,25.2 15.4,25.2 16.7,25.2 C16.9,25.2 17,25.1 17,24.9 C17,22.8 17,20.6 17,18.5 C17,18 17,17.4 17.1,16.9 C17.2,16.3 17.4,15.8 17.8,15.3 C18.3,14.7 19,14.6 19.7,14.6 C20.7,14.6 21.3,15.1 21.6,16.1 C21.8,16.7 21.8,17.4 21.8,18 C21.8,20.3 21.8,22.6 21.8,24.9 C21.8,25.2 21.8,25.2 22.1,25.2 C23.4,25.2 24.6,25.2 25.9,25.2 C26.3,25.2 26.3,25.2 26.3,24.8 C26.3,22 26.3,19.3 26.3,16.5 C26.3,15.7 26.2,14.8 25.9,14 C25.5,12.7 24.9,11.7 23.6,11.2 C22.3,10.6 21,10.5 19.6,10.9 C18.4,11.1 17.4,11.8 16.8,12.8 Z M9.8,18.1 C9.8,15.8 9.8,13.6 9.8,11.3 C9.8,11.1 9.7,11 9.5,11 C8.2,11 6.9,11 5.7,11 C5.5,11 5.4,11.1 5.4,11.3 C5.4,15.8 5.4,20.3 5.4,24.8 C5.4,25 5.5,25.1 5.7,25.1 C7,25.1 8.3,25.1 9.5,25.1 C9.7,25.1 9.8,25 9.8,24.8 C9.8,22.6 9.8,20.4 9.8,18.1 Z M5,6.6 C5,8 6.2,9.2 7.6,9.2 C9.1,9.2 10.2,8.1 10.2,6.6 C10.2,5.1 9,4 7.6,4 C6,4 5,5.3 5,6.6 Z" id="Shape" fill="#000000" fill-rule="nonzero"></path>
                <rect id="Rectangle-3" stroke="#000000" x="0.5" y="0.5" width="29" height="29"></rect>
            </g>
        </g>
    </g>
</svg>