<?xml version="1.0" encoding="utf-8"?>
<!-- Generator: Adobe Illustrator 23.0.1, SVG Export Plug-In . SVG Version: 6.00 Build 0)  -->
<svg version="1.1" id="Ebene_1" xmlns="http://www.w3.org/2000/svg" xmlns:xlink="http://www.w3.org/1999/xlink" x="0px" y="0px"
	 viewBox="0 0 30 30" style="enable-background:new 0 0 30 30;" xml:space="preserve">
<path d="M4,6.6C4,8,5.2,9.2,6.6,9.2c1.5,0,2.6-1.1,2.6-2.6S8,4,6.6,4C5,4,4,5.3,4,6.6z M8.8,18.1c0-2.3,0-4.5,0-6.8
	c0-0.2-0.1-0.3-0.3-0.3c-1.3,0-2.6,0-3.8,0c-0.2,0-0.3,0.1-0.3,0.3c0,4.5,0,9,0,13.5c0,0.2,0.1,0.3,0.3,0.3c1.3,0,2.6,0,3.8,0
	c0.2,0,0.3-0.1,0.3-0.3C8.8,22.6,8.8,20.4,8.8,18.1z M15.8,12.8c0-0.5,0-1,0-1.5c0-0.2-0.1-0.3-0.3-0.3c-1.2,0-2.5,0-3.7,0
	c-0.2,0-0.3,0.1-0.3,0.3c0,4.5,0,9.1,0,13.6c0,0.2,0.1,0.3,0.3,0.3c1.3,0,2.6,0,3.9,0c0.2,0,0.3-0.1,0.3-0.3c0-2.1,0-4.3,0-6.4
	c0-0.5,0-1.1,0.1-1.6c0.1-0.6,0.3-1.1,0.7-1.6c0.5-0.6,1.2-0.7,1.9-0.7c1,0,1.6,0.5,1.9,1.5c0.2,0.6,0.2,1.3,0.2,1.9
	c0,2.3,0,4.6,0,6.9c0,0.3,0,0.3,0.3,0.3c1.3,0,2.5,0,3.8,0c0.4,0,0.4,0,0.4-0.4c0-2.8,0-5.5,0-8.3c0-0.8-0.1-1.7-0.4-2.5
	c-0.4-1.3-1-2.3-2.3-2.8c-1.3-0.6-2.6-0.7-4-0.3C17.4,11.1,16.4,11.8,15.8,12.8z"/>
<g>
	<path d="M28,1c0.55,0,1,0.45,1,1v26c0,0.55-0.45,1-1,1H2c-0.55,0-1-0.45-1-1V2c0-0.55,0.45-1,1-1H28 M28,0H2C0.9,0,0,0.9,0,2v26
		c0,1.1,0.9,2,2,2h26c1.1,0,2-0.9,2-2V2C30,0.9,29.1,0,28,0L28,0z"/>
</g>
</svg>
