<?xml version="1.0" encoding="utf-8"?>
<!-- Generator: Adobe Illustrator 21.1.0, SVG Export Plug-In . SVG Version: 6.00 Build 0)  -->
<svg version="1.1" id="Ebene_1" xmlns="http://www.w3.org/2000/svg" xmlns:xlink="http://www.w3.org/1999/xlink" x="0px" y="0px"
	 viewBox="0 0 34 31" style="enable-background:new 0 0 34 31;" xml:space="preserve">
<style type="text/css">
	.st0{fill:#FFFFFF;}
	.st1{filter:url(#Adobe_OpacityMaskFilter);}
	.st2{mask:url(#mask-2);fill:#FFFFFF;}
</style>
<g id="Symbols">
	<g id="header-weiss-haupt" transform="translate(-87.000000, -7.000000)">
		<g id="Page-1" transform="translate(87.000000, 7.000000)">
			<path id="Fill-1" class="st0" d="M31.7,27.1c0,0.8,0.8,1.6,1.5,1.6h0.5L34,29v1.7L33.7,31h-9.1l-0.3-0.3V29l0.3-0.3h0.5
				c0.8,0,1.5-0.8,1.5-1.6v-7.8c0-3.2-1.8-5.2-4.1-5.2c-2,0-3,1.4-3,3.8v9.1c0,0.8,0.8,1.6,1.5,1.6h0.5l0.3,0.3v1.7L21.5,31h-9.1
				l-0.3-0.3V29l0.3-0.3h0.5c0.8,0,1.5-0.8,1.5-1.6v-7.8c0-3.2-1.8-5.2-4-5.2c-2,0-3,1.4-3,3.8v9.1c0,0.8,0.8,1.6,1.5,1.6h0.5
				L9.7,29v1.7L9.4,31H0.3L0,30.7V29l0.3-0.3h0.5c0.8,0,1.5-0.8,1.5-1.6v-9.9c0-3.9,2.5-6.2,6.1-6.2c2.9,0,4.9,1.2,6.3,3.3
				c0.9-2.4,3.3-3.3,5.9-3.3c2.5,0,5.1,1.4,6.4,3.5l-0.4-2.6l0.4-0.4h1.2l5.6,2.3l0.3,0.4v0.9l-0.4,0.4h-0.4c-0.8,0-1.5,0.8-1.5,1.6
				V27.1z"/>
			<g id="Group-5" transform="translate(27.000000, 0.000000)">
				<g id="Clip-4">
				</g>
				<defs>
					<filter id="Adobe_OpacityMaskFilter" filterUnits="userSpaceOnUse" x="0.1" y="0.5" width="6.4" height="6.4">
						<feColorMatrix  type="matrix" values="1 0 0 0 0  0 1 0 0 0  0 0 1 0 0  0 0 0 1 0"/>
					</filter>
				</defs>
				<mask maskUnits="userSpaceOnUse" x="0.1" y="0.5" width="6.4" height="6.4" id="mask-2">
					<g class="st1">
						<polygon id="path-1" class="st0" points="0.1,0.5 6.5,0.5 6.5,6.9 0.1,6.9 						"/>
					</g>
				</mask>
				<path id="Fill-3" class="st2" d="M6.5,3.7c0,1.7-1.4,3.2-3.2,3.2c-1.8,0-3.2-1.4-3.2-3.2c0-1.8,1.5-3.2,3.2-3.2
					C5,0.5,6.5,2,6.5,3.7"/>
			</g>
		</g>
	</g>
</g>
</svg>
