
<svg width="108px" height="21px" viewBox="0 0 108 21" version="1.1" xmlns="http://www.w3.org/2000/svg" xmlns:xlink="http://www.w3.org/1999/xlink">
    <defs>
        <polygon id="path-1" points="21.6015839 13.8773448 21.6015839 0.0846534965 0.369793357 0.0846534965 0.369793357 13.8773448 21.6015839 13.8773448"></polygon>
        <polygon id="path-3" points="0.599785985 0 4.99801326 0 4.99801326 4.23013059 0.599785985 4.23013059 0.599785985 4.10860157e-15"></polygon>
        <polygon id="path-5" points="0.202363636 0 4.50497727 0 4.50497727 4.36442045 0.202363636 4.36442045 0.202363636 4.23903337e-15"></polygon>
    </defs>
    <g id="Symbols" stroke="none" stroke-width="1" fill="none" fill-rule="evenodd">
        <g id="Mob_Header_Main" transform="translate(-13.000000, -10.000000)">
            <g id="Page-1" transform="translate(13.000000, 10.000000)">
                <path d="M7.18891044,20.0454545 C11.4003244,20.0454545 14.1632265,17.8857288 14.1632265,14.6328085 C14.1632265,7.11376333 3.86269815,9.72676486 3.86269815,5.96724225 C3.86269815,4.52742509 5.09661561,3.6742001 7.13526186,3.6742001 C9.28120528,3.6742001 10.7565414,4.87404774 11.1320815,6.76714068 L13.9486322,5.6206196 C13.4121464,2.82097511 10.6492442,0.954545455 7.13526186,0.954545455 C3.46033376,0.954545455 0.69743161,3.00761808 0.69743161,5.96724225 C0.69743161,12.686389 10.9711357,10.2600305 10.9711357,14.6861351 C10.9711357,16.2859319 9.52262391,17.3257999 7.29620762,17.3257999 C5.04296703,17.3257999 3.19209083,15.7526663 2.87019932,13.3529711 L0,14.2328593 C0.536485854,17.6457593 3.54080664,20.0454545 7.18891044,20.0454545 L7.18891044,20.0454545 Z M24.4101064,19.7254952 L24.2223363,17.1391569 C23.7126748,17.3791265 23.095716,17.4591163 22.5860545,17.4591163 C21.4862585,17.4591163 20.7351783,16.765871 20.7351783,15.432707 L20.7351783,8.87353987 L24.2223363,8.87353987 L24.2223363,6.39385475 L20.7351783,6.39385475 L20.7351783,2.39436262 L17.8113304,2.39436262 L17.8113304,6.39385475 L15.4507926,6.39385475 L15.4507926,8.87353987 L17.8113304,8.87353987 L17.8113304,15.5926866 C17.8113304,18.6589639 19.7158551,20.0454545 22.2641629,20.0454545 C23.0152431,20.0454545 23.7663233,19.9388014 24.4101064,19.7254952 L24.4101064,19.7254952 Z M39.0025216,6.39385475 L36.0786737,6.39385475 L36.0786737,12.2864398 C36.0786737,15.5126968 34.7106348,17.432453 32.4573942,17.432453 C30.7406394,17.432453 29.6676677,16.2592687 29.6676677,14.579482 L29.6676677,6.39385475 L26.7438198,6.39385475 L26.7438198,15.246064 C26.7438198,18.1523616 28.7556418,20.0454545 31.6526654,20.0454545 C33.6108388,20.0454545 35.193472,19.0322499 36.0786737,17.5924327 L36.0786737,19.8321483 L39.0025216,19.8321483 L39.0025216,6.39385475 Z M48.203254,20.0454545 C50.0004816,20.0454545 51.6367635,19.2455561 52.2805465,18.1256983 L52.2805465,19.8321483 L55.2043944,19.8321483 L55.2043944,0.954545455 L52.2805465,0.954545455 L52.2805465,8.07364144 C51.4758177,6.95378365 49.8931844,6.1805485 48.1496054,6.1805485 C44.0723129,6.1805485 41.7385994,9.06018283 41.7385994,13.1130015 C41.7385994,17.1658202 44.0723129,20.0454545 48.203254,20.0454545 L48.203254,20.0454545 Z M48.5787941,17.5124429 C46.2182563,17.5124429 44.6624474,15.7526663 44.6624474,13.1130015 C44.6624474,10.4466734 46.2182563,8.71356018 48.5787941,8.71356018 C50.9393318,8.71356018 52.4951408,10.4466734 52.4951408,13.1130015 C52.4951408,15.7526663 50.9393318,17.5124429 48.5787941,17.5124429 L48.5787941,17.5124429 Z M58.6641693,19.8321483 L61.5880172,19.8321483 L61.5880172,6.39385475 L58.6641693,6.39385475 L58.6641693,19.8321483 Z M71.2984112,20.0454545 C75.3488794,20.0454545 78.2727273,17.1391569 78.2727273,13.1130015 C78.2727273,9.08684611 75.3488794,6.1805485 71.2984112,6.1805485 C67.2211187,6.1805485 64.3240951,9.08684611 64.3240951,13.1130015 C64.3240951,17.1391569 67.2211187,20.0454545 71.2984112,20.0454545 L71.2984112,20.0454545 Z M71.2984112,17.5124429 C68.8842248,17.5124429 67.2747673,15.6993398 67.2747673,13.1130015 C67.2747673,10.5266633 68.8842248,8.71356018 71.2984112,8.71356018 C73.6857732,8.71356018 75.3220551,10.5266633 75.3220551,13.1130015 C75.3220551,15.6993398 73.6857732,17.5124429 71.2984112,17.5124429 L71.2984112,17.5124429 Z" id="Fill-1" fill="#1D1D1B"></path>
                <g id="Group-4" transform="translate(85.909091, 0.000000)">
                    <g id="Group-5" transform="translate(0.000000, 6.167832)">
                        <mask id="mask-2" fill="white">
                            <use xlink:href="#path-1"></use>
                        </mask>
                        <g id="Clip-4"></g>
                        <path d="M21.6004017,1.46741979 C21.6004017,1.46741979 21.6032164,1.12269965 21.6004017,1.06385853 C19.9695731,0.739122168 18.3668913,0.414385804 16.7107304,0.0846534965 C16.7107304,0.0846534965 16.7107304,1.15822636 16.7101675,2.67643825 C14.979699,-0.0241470629 12.7960661,0.127951678 12.7960661,0.127951678 L12.7915626,0.127951678 C10.9513213,0.127951678 9.38973392,1.28923112 8.81272343,2.9090272 L8.65566399,2.69586692 C6.92350664,-0.0258123776 4.72861503,0.127951678 4.72861503,0.127951678 L4.72467448,0.127951678 C2.42282483,0.127951678 0.556688462,1.9442549 0.508838811,4.20242161 L0.506587063,4.20242161 C0.505461189,6.56439294 0.45930035,13.0391364 0.369793357,13.8773448 L4.07898566,13.8773448 C4.01199615,13.7679892 3.96470944,13.6480865 3.96527238,13.5187471 C3.96583531,13.1545983 3.96696119,7.11172636 3.96696119,5.23824734 C3.96696119,3.33257224 4.57099266,2.74360594 5.24989476,2.45106566 C5.45761853,2.36169378 5.67603811,2.31228944 5.89558357,2.30007713 L6.00535629,2.29785671 C7.10026888,2.29785671 8.45300664,3.47467909 8.62751713,3.63010846 C8.59711853,3.81717881 8.58023042,4.0081349 8.57628986,4.20242161 L8.57403811,4.20242161 C8.57291224,6.56439294 8.52618846,13.0391364 8.43724441,13.8773448 L12.1458738,13.8773448 C12.0788843,13.7679892 12.0321605,13.6480865 12.0327234,13.5187471 C12.0332864,13.1545983 12.0344122,7.11117126 12.0344122,5.23824734 C12.0344122,3.33257224 12.6384437,2.74360594 13.3173458,2.45106566 C13.5250696,2.36169378 13.7434892,2.31228944 13.9630346,2.30007713 L14.0728073,2.29785671 C15.2127549,2.29785671 16.6319192,3.57348776 16.7101675,3.64398608 C16.7090416,7.03734231 16.7079157,12.8043271 16.7079157,13.5753678 C16.7079157,13.6819479 16.6747024,13.782977 16.6285416,13.8773448 L20.2639892,13.8773448 C20.2065696,13.7740953 20.1660381,13.6630743 20.1660381,13.5431717 C20.167164,13.1018633 20.1688528,11.2050699 20.1677269,10.9647094 C20.1570311,8.55999503 20.1598458,6.15528063 20.1637864,3.75056622 C20.1643493,3.24708608 20.220643,2.7502672 20.4745276,2.29785671 C20.676622,1.93703853 20.9738528,1.67391881 21.3690346,1.54402427 C21.4883773,1.50516692 21.6004017,1.46741979 21.6004017,1.46741979 L21.6004017,1.46741979 Z M8.57910455,4.20297671 L8.57741573,4.20242161 L8.57741573,4.20242161 L8.57910455,4.20297671 Z M0.512216434,4.20297671 L0.509964685,4.20242161 L0.509964685,4.20242161 L0.512216434,4.20297671 Z" id="Fill-3" fill="#1D1D1B" mask="url(#mask-2)"></path>
                    </g>
                    <g id="Group-8" transform="translate(16.465909, 0.000000)">
                        <mask id="mask-4" fill="white">
                            <use xlink:href="#path-3"></use>
                        </mask>
                        <g id="Clip-7"></g>
                        <path d="M2.79889962,4.23013059 C3.96127083,4.23013059 4.99801326,3.33675865 4.99801326,2.11494965 C4.99801326,0.863650699 3.96127083,-0.000231293706 2.79889962,-0.000231293706 C1.60481629,-0.000231293706 0.599785985,0.863650699 0.599785985,2.11494965 C0.599785985,3.33675865 1.60481629,4.23013059 2.79889962,4.23013059" id="Fill-6" fill="#1D1D1B" mask="url(#mask-4)"></path>
                    </g>
                </g>
                <g id="Group-11" transform="translate(58.227273, 0.000000)">
                    <mask id="mask-6" fill="white">
                        <use xlink:href="#path-5"></use>
                    </mask>
                    <g id="Clip-10"></g>
                    <path d="M2.35367045,4.36442045 C3.49077273,4.36442045 4.50497727,3.4426875 4.50497727,2.18209091 C4.50497727,0.891068182 3.49077273,-0.000238636364 2.35367045,-0.000238636364 C1.18554545,-0.000238636364 0.202363636,0.891068182 0.202363636,2.18209091 C0.202363636,3.4426875 1.18554545,4.36442045 2.35367045,4.36442045" id="Fill-9" fill="#1D1D1B" mask="url(#mask-6)"></path>
                </g>
            </g>
        </g>
    </g>
</svg>