
<svg width="34px" height="31px" viewBox="0 0 34 31" version="1.1" xmlns="http://www.w3.org/2000/svg" xmlns:xlink="http://www.w3.org/1999/xlink">
    <defs>
        <polygon id="path-1" points="0.0752 0.5 6.45786667 0.5 6.45786667 6.88333333 0.0752 6.88333333 0.0752 0.5"></polygon>
    </defs>
    <g id="Symbols" stroke="none" stroke-width="1" fill="none" fill-rule="evenodd">
        <g id="header-weiss-haupt" transform="translate(-87.000000, -7.000000)">
            <g id="Page-1" transform="translate(87.000000, 7.000000)">
                <path d="M31.6875295,27.0630674 C31.6875295,27.8507269 32.4587986,28.6383865 33.2300676,28.6383865 L33.6925617,28.6383865 L34,28.9523582 L34,30.6846632 L33.6925617,31 L24.5937254,31 L24.2862872,30.6846632 L24.2862872,28.9523582 L24.5937254,28.6383865 L25.0575562,28.6383865 C25.8274886,28.6383865 26.5987577,27.8507269 26.5987577,27.0630674 L26.5987577,19.2683776 C26.5987577,16.039929 24.7487813,14.1110504 22.512502,14.1110504 C20.4700425,14.1110504 19.5437176,15.4884308 19.5437176,17.9292198 L19.5437176,27.0630674 C19.5437176,27.8507269 20.3149866,28.6383865 21.0862557,28.6383865 L21.5487498,28.6383865 L21.8575248,28.9523582 L21.8575248,30.6846632 L21.5487498,31 L12.4512502,31 L12.1424752,30.6846632 L12.1424752,28.9523582 L12.4512502,28.6383865 L12.9137443,28.6383865 C13.6850134,28.6383865 14.4562824,27.8507269 14.4562824,27.0630674 L14.4562824,19.2683776 C14.4562824,16.039929 12.6437333,14.1110504 10.407454,14.1110504 C8.40375845,14.1110504 7.40124233,15.4884308 7.40124233,17.9292198 L7.40124233,27.0630674 C7.40124233,27.8507269 8.1725114,28.6383865 8.94244378,28.6383865 L9.40627457,28.6383865 L9.71371285,28.9523582 L9.71371285,30.6846632 L9.40627457,31 L0.307438276,31 L0,30.6846632 L0,28.9523582 L0.307438276,28.6383865 L0.769932379,28.6383865 C1.54120145,28.6383865 2.31247051,27.8507269 2.31247051,27.0630674 L2.31247051,17.181148 C2.31247051,13.2838032 4.77999685,11 8.44252241,11 C11.2950149,11 13.3374744,12.1821719 14.7249568,14.3076241 C15.6125177,11.9446454 18.0025161,11 20.5849976,11 C23.0912879,11 25.7125334,12.3787455 26.9850605,14.5041977 L26.5987577,11.9446454 L26.9850605,11.5514982 L28.1412958,11.5514982 L33.6925617,13.8748891 L34,14.2680363 L34,15.173094 L33.6150338,15.5676063 L33.2300676,15.5676063 C32.4587986,15.5676063 31.6875295,16.3552659 31.6875295,17.1415603 L31.6875295,27.0630674 Z" id="Fill-1" fill="#1D1D1B"></path>
                <g id="Group-5" transform="translate(27.000000, 0.000000)">
                    <mask id="mask-2" fill="white">
                        <use xlink:href="#path-1"></use>
                    </mask>
                    <g id="Clip-4"></g>
                    <path d="M6.45786667,3.73 C6.45786667,5.46066667 5.0352,6.88333333 3.30453333,6.88333333 C1.53653333,6.88333333 0.0752,5.46066667 0.0752,3.73 C0.0752,1.96066667 1.53653333,0.499333333 3.30453333,0.499333333 C5.0352,0.499333333 6.45786667,1.96066667 6.45786667,3.73" id="Fill-3" fill="#1D1D1B" mask="url(#mask-2)"></path>
                </g>
            </g>
        </g>
    </g>
</svg>