<svg id="kreise" xmlns="http://www.w3.org/2000/svg" viewBox="0 0 177.25 31.62"><title>mi_Logo_200213_gross</title><path d="M34.68,28.48c-1.42,0-2.92-1.18-2.92-3.65V10.36h5.1V9.23H31.75V2.64h-1l-3,6.59H23.82v1.13h3.94V24.64c0,4.47,3,6.25,5.79,6.25,3.32,0,5.59-2.41,5.32-8.33H38C38,25.84,37.33,28.48,34.68,28.48Z"/><path d="M90.08,1.7H82.59v.77l3.51,1.2V15.49a8.87,8.87,0,0,0-8.86-6.77c-5.7,0-9.9,4.28-9.9,11.09s4.2,11.1,9.9,11.1A8.92,8.92,0,0,0,86.1,24.1v6.29h7.5v-.85l-3.52-1.12ZM80.17,28.16c-3.91.69-7.46-2.33-8.36-7.46s1.4-9.17,5.3-9.86c3.74-.66,7.51,2.15,8.42,7.32l0,.16C86.47,23.49,83.91,27.5,80.17,28.16Z"/><polygon points="102.58 9.24 95.09 9.24 95.09 10.09 98.56 11.21 98.56 28.42 95.09 29.54 95.09 30.39 106.05 30.39 106.05 29.54 102.58 28.42 102.58 9.24"/><path d="M100.53,5.45A2.33,2.33,0,0,0,103,3.09,2.4,2.4,0,0,0,100.53.74a2.35,2.35,0,0,0-2.4,2.35A2.28,2.28,0,0,0,100.53,5.45Z"/><path d="M170.76,5.45a2.33,2.33,0,0,1-2.48-2.36A2.4,2.4,0,0,1,170.76.74a2.36,2.36,0,0,1,2.4,2.35A2.29,2.29,0,0,1,170.76,5.45Z"/><path d="M119.73,8.72c-6.38,0-11.43,4.58-11.43,11s5,11.14,11.43,11.14,11.48-4.67,11.48-11.14S126.16,8.72,119.73,8.72Zm1.7,20.49c-3.94.7-7.15-2-8.25-8.3s1-9.85,4.93-10.54,7.13,2,8.23,8.22S125.41,28.51,121.43,29.21Z"/><path d="M62.13,9.24H54.64v.85l3.47,1.12V21.1c0,4.28-2.23,7.49-6.13,7.49-3,0-4.71-2-4.71-5.56V9.24H39.78v.85l3.46,1.12v11.9c0,5.18,2.66,7.8,7,7.8l.27,0h0s6,.21,7.59-5.41v4.9h7.53v-.85l-3.51-1.12Z"/><path d="M21.19,18.94a7.17,7.17,0,0,0-2.74-2.78,20,20,0,0,0-3.52-1.65c-3.31-1.4-6.47-2.28-8.57-3.66A4.17,4.17,0,0,1,4.74,7.63a4.69,4.69,0,0,1,.77-2.56c1.6-2.44,5-2.55,5.64-2.56a6.25,6.25,0,0,1,4.57,1.73s4,7,4,7h.93V1.61h-.89L18.43,3.45a13.78,13.78,0,0,0-7.62-2.22A11.73,11.73,0,0,0,3.92,3.28,7.29,7.29,0,0,0,1.09,8.7a7,7,0,0,0,3.19,6,24.15,24.15,0,0,0,2.84,1.49c4,1.77,6.21,2.54,6.21,2.54A11.57,11.57,0,0,1,16.93,21a5.15,5.15,0,0,1,1.28,1.81,4.61,4.61,0,0,1,.33,2.12,4.56,4.56,0,0,1-.91,2.26c-1.77,2.38-5.23,2.16-5.92,2.14,0,0-3.79-.14-5.88-2.52-1.17-2-2.34-4.08-3.52-6.1h-1v9.67h.89l1.28-1.84a16.32,16.32,0,0,0,8.12,2.39A13.86,13.86,0,0,0,16.85,30a9,9,0,0,0,3.28-2.23,7.6,7.6,0,0,0,2-5.29A7.26,7.26,0,0,0,21.19,18.94Z"/><path d="M176.28,10.07V9.23h-7.59v3.1a9,9,0,0,0-.7-.93,7.24,7.24,0,0,0-5.68-2.68,7.14,7.14,0,0,0-6.59,4.42,7.17,7.17,0,0,0-1.05-1.54c-.44-.5-.58-.65-.94-1a7.16,7.16,0,0,0-12,5.23V28.42l-3.17,1.12v.86H149v-.86l-3.18-1.12V16.33c0-.23,0-.45,0-.67a6.72,6.72,0,0,1,.25-1.48,4.25,4.25,0,0,1,.65-1.23,4.61,4.61,0,0,1,5.09-1.62,4.92,4.92,0,0,1,1.68.91,5.32,5.32,0,0,1,.89,1,4.89,4.89,0,0,1,.87,2.63h0V28.42l-3.17,1.12v.86h10.37v-.86l-3.17-1.12V16.33c0-.23,0-.45,0-.67a5.37,5.37,0,0,1,.24-1.46,4.68,4.68,0,0,1,.67-1.27,4.61,4.61,0,0,1,5.08-1.6,5.43,5.43,0,0,1,2.63,1.87,6.34,6.34,0,0,1,.74,1.39c0,.06,0,.15.06.22V28.43l-3.18,1.11v.86h10.73v-.86l-3.52-1.11V11.18Z"/></svg>