<?xml version="1.0" encoding="utf-8"?>
<!-- Generator: Adobe Illustrator 23.1.1, SVG Export Plug-In . SVG Version: 6.00 Build 0)  -->
<svg version="1.1" xmlns="http://www.w3.org/2000/svg" xmlns:xlink="http://www.w3.org/1999/xlink" x="0px" y="0px"
	 viewBox="0 0 85.6 14.5" style="enable-background:new 0 0 85.6 14.5;" xml:space="preserve">
<style type="text/css">
	.st0{fill:#1D1D1B;}
	.st1{display:none;}
	.st2{display:inline;}
	.st3{display:inline;fill:#1D1D1B;}
	.st4{display:inline;fill:none;stroke:#C84A94;stroke-width:0.1;stroke-miterlimit:10;}
	.st5{fill:#FFFFFF;}
</style>
<g id="Ebene_1">
</g>
<g id="neu">
	<g>
		<path d="M85.3,4.5V4h0h-3.5h0V6c-0.7-1.6-2.1-2-2.8-2.1c0,0,0,0-0.1,0c-0.1,0-0.2,0-0.3,0c-0.1,0-0.2,0-0.3,0
			c-1.6,0-2.6,0.8-3,2.4c-0.7-1.7-2-2.2-2.8-2.3c-0.2,0-0.5-0.1-0.7-0.1c-2,0-3.2,1.3-3.2,3.7v5.7l-1.7,0.5v0.4h5.1v-0.4l-1.5-0.5
			V7.6c0-1.7,0.7-2.7,2.1-2.7c1.6,0,2.6,1.4,2.6,3.3v5l-1.5,0.5v0.4h5v-0.4L77,13.2V7.5c0-1.7,0.7-2.5,2.1-2.5
			c1.4,0,2.4,1.2,2.6,2.9v5.4L80,13.8v0.4h0.2h5.1h0v-0.4l-1.7-0.5V5L85.3,4.5z"/>
		<path d="M82.7,2.4c0.7,0,1.1-0.5,1.1-1.1c0-0.6-0.5-1.1-1.1-1.1c-0.7,0-1.2,0.5-1.2,1.1C81.5,1.9,82,2.4,82.7,2.4z"/>
		<path d="M16.3,13.3c-0.7,0-1.4-0.6-1.4-1.7V4.6h2.4V4.1h-2.4V0.9h-0.5L13,4.1h-1.9v0.5H13h0v6.8c0,2.1,1.4,3,2.8,3
			c1.6,0,2.7-1.2,2.5-4h-0.4C17.9,12,17.6,13.3,16.3,13.3z"/>
		<path d="M42.8,0.5h-3.6v0.4l1.7,0.6v5.7c-0.5-2-2.2-3.2-4.2-3.2c-2.7,0-4.7,2-4.7,5.3c0,3.3,2,5.3,4.7,5.3c2,0,3.7-1.3,4.2-3.3v3
			h3.6v-0.4l-1.7-0.5V0.5z M38.1,13.1c-1.9,0.3-3.6-1.1-4-3.6c-0.4-2.5,0.7-4.4,2.5-4.7c1.8-0.3,3.6,1,4,3.5l0,0.1
			C41.1,10.9,39.9,12.8,38.1,13.1z"/>
		<polygon points="48.8,4.1 45.2,4.1 45.2,4.5 46.9,5 46.9,13.2 45.2,13.8 45.2,14.2 50.5,14.2 50.5,13.8 48.8,13.2 		"/>
		<path d="M47.8,2.4c0.7,0,1.2-0.5,1.2-1.1c0-0.6-0.5-1.1-1.2-1.1c-0.7,0-1.1,0.5-1.1,1.1C46.7,1.9,47.2,2.4,47.8,2.4z"/>
		<path d="M57,3.8c-3.1,0-5.5,2.2-5.5,5.3c0,3.1,2.4,5.3,5.5,5.3c3.1,0,5.5-2.2,5.5-5.3C62.5,6,60.1,3.8,57,3.8z M57.8,13.6
			c-1.9,0.3-3.4-1-3.9-4c-0.5-3,0.5-4.7,2.4-5c1.9-0.3,3.4,0.9,3.9,3.9C60.7,11.5,59.7,13.3,57.8,13.6z"/>
		<path d="M29.5,4.1h-3.6v0.4L27.5,5v4.7c0,2-1.1,3.6-2.9,3.6c-1.5,0-2.3-0.9-2.3-2.7V4.1h-3.6v0.4L20.4,5v5.7
			c0,2.5,1.3,3.7,3.4,3.7c0,0,0.1,0,0.1,0l0,0c0,0,2.9,0.1,3.6-2.6v2.3h3.6v-0.4l-1.7-0.5V4.1z"/>
		<path d="M9.9,8.7C9.5,8.1,9.2,7.8,8.6,7.4C8,7,7.3,6.8,6.9,6.6C5.3,5.9,3.8,5.5,2.8,4.8C2,4.3,2,3.3,2,3.3c0-0.6,0.3-1.1,0.4-1.2
			c0.8-1.2,2.4-1.2,2.7-1.2c0,0,1.3-0.1,2.2,0.8c0,0,1.9,3.4,1.9,3.4h0.4V0.4H9.2L8.6,1.3c-1-0.7-2.3-1.1-3.6-1.1
			c-0.4,0-2.1,0-3.3,1C0.6,2,0.3,3.1,0.3,3.8c0,2,1.5,2.9,1.5,2.9c0.3,0.2,0.9,0.5,1.4,0.7c1.9,0.8,3,1.2,3,1.2
			c0.6,0.2,1.2,0.6,1.7,1.1c0.4,0.4,0.5,0.7,0.6,0.9c0.2,0.5,0.2,0.9,0.2,1c-0.1,0.6-0.3,0.9-0.4,1.1c-0.8,1.1-2.5,1-2.8,1
			c0,0-1.8-0.1-2.8-1.2c-0.6-1-1.1-2-1.7-2.9H0.4v4.6h0.4c0,0,0.4-0.5,0.6-0.9c0,0,1.7,1.1,3.9,1.1c0.5,0,1.5,0,2.5-0.4
			c0.3-0.1,1-0.4,1.6-1.1c1.1-1.1,0.9-2.5,0.9-2.5C10.3,10.1,10.3,9.4,9.9,8.7z"/>
	</g>
</g>
<g id="Ebene_3" class="st1">
</g>
<g id="serifen_extra" class="st1">
</g>
<g id="Ebene_4" class="st1">
	<path class="st3" d="M1.2,14.4c0,0-1.5,0.1-2.4-0.9c0,0-2.1-3.7-2.1-3.7h-0.5v5.1h0.5l0.7-1c1.1,0.7,2.5,1.2,4,1.2"/>
</g>
</svg>
