<svg id="kreise" xmlns="http://www.w3.org/2000/svg" viewBox="0 0 18.88 15.07"><title>Zeichenfläche 25</title><path d="M16,2.58a1.11,1.11,0,0,1-1.19-1.13A1.15,1.15,0,0,1,16,.33a1.12,1.12,0,0,1,1.15,1.12A1.09,1.09,0,0,1,16,2.58Z"/><path d="M18.62,4.79v-.4H15V5.87a3.93,3.93,0,0,0-.34-.44,3.47,3.47,0,0,0-2.71-1.29A3.41,3.41,0,0,0,8.79,6.26a3.72,3.72,0,0,0-.51-.74,3.44,3.44,0,0,0-.45-.47,3.31,3.31,0,0,0-2.32-.91A3.41,3.41,0,0,0,2.1,7.55v6L.58,14.1v.41h5V14.1L4,13.57V7.79c0-.11,0-.22,0-.33a3,3,0,0,1,.12-.7,1.66,1.66,0,0,1,.31-.59,2.22,2.22,0,0,1,1.78-.88,2.25,2.25,0,0,1,1.45.54,2.71,2.71,0,0,1,.43.48,2.43,2.43,0,0,1,.42,1.26h0v6L7,14.1v.41h5V14.1l-1.51-.53V7.79c0-.11,0-.22,0-.32a2.28,2.28,0,0,1,.11-.7,2.22,2.22,0,0,1,.32-.61,2.28,2.28,0,0,1,1.78-.87,2.32,2.32,0,0,1,.65.1A2.51,2.51,0,0,1,15,7l0,.11v6.51l-1.52.54v.41H18.6v-.41l-1.68-.54V5.32Z"/></svg>