<?xml version="1.0" encoding="utf-8"?>
<!-- Generator: Adobe Illustrator 21.1.0, SVG Export Plug-In . SVG Version: 6.00 Build 0)  -->
<svg version="1.1" id="Ebene_1" xmlns="http://www.w3.org/2000/svg" xmlns:xlink="http://www.w3.org/1999/xlink" x="0px" y="0px"
	 viewBox="0 0 18.7 14.5" style="enable-background:new 0 0 18.7 14.5;" xml:space="preserve">
<style type="text/css">
	.st0{display:none;}
	.st1{display:inline;fill:#1D1D1B;}
</style>
<g id="Ebene_1_1_">
</g>
<g id="neu">
	<g>
		<path d="M18.4,4.5V4l0,0h-3.5l0,0v2c-0.7-1.6-2.1-2-2.8-2.1c0,0,0,0-0.1,0s-0.2,0-0.3,0c-0.1,0-0.2,0-0.3,0c-1.6,0-2.6,0.8-3,2.4
			C7.7,4.6,6.4,4.1,5.6,4C5.4,4,5.1,3.9,4.9,3.9c-2,0-3.2,1.3-3.2,3.7v5.7L0,13.8v0.4h5.1v-0.4l-1.5-0.5V7.6c0-1.7,0.7-2.7,2.1-2.7
			c1.6,0,2.6,1.4,2.6,3.3v5l-1.5,0.5v0.4h5v-0.4l-1.7-0.5V7.5c0-1.7,0.7-2.5,2.1-2.5s2.4,1.2,2.6,2.9v5.4l-1.7,0.5v0.4h0.2h5.1l0,0
			v-0.4l-1.7-0.5V5L18.4,4.5z"/>
		<path d="M15.8,2.4c0.7,0,1.1-0.5,1.1-1.1s-0.5-1.1-1.1-1.1c-0.7,0-1.2,0.5-1.2,1.1S15.1,2.4,15.8,2.4z"/>
	</g>
</g>
<g id="Ebene_3" class="st0">
</g>
<g id="serifen_extra" class="st0">
</g>
<g id="Ebene_4" class="st0">
	<path class="st1" d="M-65.7,14.4c0,0-1.5,0.1-2.4-0.9l-2.1-3.7h-0.5v5.1h0.5l0.7-1c1.1,0.7,2.5,1.2,4,1.2"/>
</g>
</svg>
