<?xml version="1.0" encoding="utf-8"?>
<!-- Generator: Adobe Illustrator 23.1.1, SVG Export Plug-In . SVG Version: 6.00 Build 0)  -->
<svg version="1.1" id="Ebene_1" xmlns="http://www.w3.org/2000/svg" xmlns:xlink="http://www.w3.org/1999/xlink" x="0px" y="0px"
	 viewBox="0 0 30 30" style="enable-background:new 0 0 30 30;" xml:space="preserve">
<style type="text/css">
	.st0{fill:none;stroke:#000000;stroke-miterlimit:10;}
	.st1{fill:none;stroke:#000000;stroke-linecap:square;stroke-miterlimit:10;}
</style>
<g>
	<path d="M22.5,1c0.55,0,1,0.45,1,1v26c0,0.55-0.45,1-1,1h-15c-0.55,0-1-0.45-1-1V2c0-0.55,0.45-1,1-1H22.5 M22.5,0h-15
		c-1.1,0-2,0.9-2,2v26c0,1.1,0.9,2,2,2h15c1.1,0,2-0.9,2-2V2C24.5,0.9,23.6,0,22.5,0L22.5,0z"/>
</g>
<circle class="st0" cx="15" cy="25.5" r="1.5"/>
<line class="st1" x1="12" y1="3.5" x2="18" y2="3.5"/>
</svg>
